<svg width="149" height="149" viewBox="0 0 149 149" fill="none" xmlns="http://www.w3.org/2000/svg">
<circle cx="74.5" cy="74.5" r="74.5" fill="white" fill-opacity="0.5"/>
<path fill-rule="evenodd" clip-rule="evenodd" d="M61.7095 74.2019C69.3354 66.8503 76.7888 59.6741 84.0699 52.6794C84.451 52.2944 84.6635 51.7833 84.6635 51.2518C84.6635 50.7204 84.451 50.2093 84.0699 49.8242C83.0387 48.7217 81.4075 48.8173 80.6648 49.5693C73.1185 56.8412 65.224 64.4413 56.9814 72.3728C56.3282 72.889 56 73.5008 56 74.2019C56 74.9061 56.3282 75.5339 56.9814 76.0884L81.7921 99.3698C82.268 99.7906 82.8959 100.016 83.5423 99.9991C84.1888 99.9818 84.8027 99.7229 85.2536 99.2774C86.4406 98.1334 85.983 97.0053 85.4459 96.47C77.5213 89.0584 69.6114 81.6357 61.7095 74.2019Z" fill="white"/>
</svg>
